<svg width="28" height="25" viewBox="0 0 28 25" fill="none" xmlns="http://www.w3.org/2000/svg">
<path d="M14.0004 24.1363L2.31854 12.4545C1.38672 11.5227 0.765507 10.4394 0.454901 9.20452C0.15187 7.96967 0.155658 6.7424 0.466264 5.52271C0.77687 4.29543 1.39429 3.22725 2.31854 2.31816C3.26551 1.38634 4.34505 0.768916 5.55717 0.465887C6.77687 0.15528 7.99278 0.15528 9.2049 0.465887C10.4246 0.776492 11.5079 1.39392 12.4549 2.31816L14.0004 3.81816L15.5458 2.31816C16.5004 1.39392 17.5837 0.776492 18.7958 0.465887C20.0079 0.15528 21.2201 0.15528 22.4322 0.465887C23.6519 0.768916 24.7352 1.38634 25.6822 2.31816C26.6064 3.22725 27.2238 4.29543 27.5344 5.52271C27.8451 6.7424 27.8451 7.96967 27.5344 9.20452C27.2314 10.4394 26.614 11.5227 25.6822 12.4545L14.0004 24.1363Z" fill="#0A0A0A"/>
</svg>
