<svg width="165" height="58" viewBox="0 0 165 58" fill="none" xmlns="http://www.w3.org/2000/svg">
<path d="M144.995 0.688232C148.409 0.688232 151.512 1.55028 154.305 3.2054C157.133 4.86053 159.339 7.10185 161.029 9.92936C162.684 12.7224 163.512 15.8257 163.512 19.2394C163.512 22.6531 162.684 25.7565 161.029 28.584C159.339 31.377 157.133 33.6184 154.305 35.2735C151.512 36.9631 148.409 37.7907 144.995 37.7907C141.581 37.7907 138.444 36.9631 135.65 35.2735C132.857 33.6184 130.616 31.377 128.961 28.584C127.271 25.7565 126.444 22.6531 126.444 19.2394C126.444 15.8257 127.271 12.7224 128.961 9.92936C130.616 7.10185 132.857 4.86053 135.65 3.2054C138.444 1.55028 141.581 0.688232 144.995 0.688232ZM144.995 30.9633C148.202 30.9633 150.96 29.7909 153.271 27.5151C155.546 25.2393 156.684 22.4807 156.684 19.2394C156.684 16.0326 155.546 13.2741 153.271 10.9638C150.96 8.68801 148.202 7.55011 144.995 7.55011C141.754 7.55011 138.995 8.68801 136.719 10.9638C134.409 13.2741 133.271 16.0326 133.271 19.2394C133.271 22.4807 134.409 25.2393 136.719 27.5151C138.995 29.7909 141.754 30.9633 144.995 30.9633Z" fill="#17B35D"/>
<path d="M121.581 0.895065C121.615 1.13644 121.615 2.7226 121.65 5.65355C121.65 8.58451 121.65 12.1706 121.65 16.3429C121.65 20.5152 121.65 24.5841 121.615 28.5495C121.581 32.5149 121.512 35.6527 121.408 37.963C121.029 43.7215 119.546 48.0662 116.926 51.0316C114.27 53.997 111.064 55.8935 107.305 56.7211C103.547 57.5487 99.8225 57.6176 96.0985 56.8935C92.3745 56.2039 89.2366 55.0315 86.7195 53.4453L89.5815 46.3076C91.0297 47.4455 93.0641 48.342 95.7192 49.0317C98.3743 49.7213 101.133 49.9282 103.96 49.6523C106.788 49.3765 109.202 48.3076 111.167 46.48C113.133 44.6525 114.133 41.7905 114.167 37.894C114.167 37.894 114.201 36.6527 114.236 34.1355C114.236 34.101 114.236 34.0321 114.236 33.9631C112.684 35.1355 110.926 36.101 108.891 36.7906C106.857 37.4803 104.547 37.8596 101.96 37.8596C98.995 37.8251 96.1675 36.9975 93.5124 35.3769C90.8573 33.7562 88.7194 31.6184 87.0298 28.8943C85.3402 26.2047 84.4781 23.2048 84.4437 19.929L84.4092 0.722656H91.2021C91.2021 0.722656 91.2366 1.30885 91.2366 2.48123C91.2711 3.65361 91.2711 5.10185 91.3055 6.79145C91.3055 8.51554 91.3055 10.2396 91.3055 11.9982C91.3055 13.7223 91.2711 15.2395 91.2366 16.4808C91.1676 19.8256 91.7193 22.5496 92.8572 24.722C93.9951 26.8599 95.4434 28.446 97.2709 29.4805C99.0639 30.5149 100.926 30.9977 102.891 30.9632C105.374 30.9287 107.753 30.2046 109.926 28.6874C112.133 27.2047 113.615 24.8599 114.374 21.6186C114.443 18.2394 114.477 14.9636 114.512 11.8258C114.546 8.65347 114.581 6.03285 114.615 3.96395C114.65 1.86056 114.65 0.826102 114.65 0.826102H114.684V0.722656H121.477V0.895065H121.581Z" fill="#17B35D"/>
<path d="M61.0639 0.688232C64.4776 0.688232 67.581 1.55028 70.374 3.2054C73.2015 4.86053 75.4083 7.10185 77.0979 9.92936C78.7531 12.7224 79.5806 15.8257 79.5806 19.2394C79.5806 22.6531 78.7531 25.7565 77.0979 28.584C75.4083 31.377 73.2015 33.6184 70.374 35.2735C67.581 36.9631 64.4776 37.7907 61.0639 37.7907C57.6502 37.7907 54.5124 36.9631 51.7193 35.2735C48.9263 33.6184 46.685 31.377 45.0299 28.584C43.3403 25.7565 42.5127 22.6531 42.5127 19.2394C42.5127 15.8257 43.3403 12.7224 45.0299 9.92936C46.685 7.10185 48.9263 4.86053 51.7193 3.2054C54.5124 1.55028 57.6502 0.688232 61.0639 0.688232ZM61.0639 30.9633C64.2707 30.9633 67.0293 29.7909 69.3395 27.5151C71.6153 25.2393 72.7532 22.4807 72.7532 19.2394C72.7532 16.0326 71.6153 13.2741 69.3395 10.9638C67.0293 8.68801 64.2707 7.55011 61.0639 7.55011C57.8226 7.55011 55.0641 8.68801 52.7883 10.9638C50.478 13.2741 49.3401 16.0326 49.3401 19.2394C49.3401 22.4807 50.478 25.2393 52.7883 27.5151C55.0641 29.7909 57.8226 30.9633 61.0639 30.9633Z" fill="#17B35D"/>
<path d="M18.167 0.619385C21.5462 0.653867 24.4427 1.27454 26.9253 2.41244C29.3736 3.58482 31.408 5.06754 32.9941 6.89507C34.5803 8.72261 35.7872 10.6191 36.5458 12.6535C37.3389 14.6535 37.7182 16.5155 37.7182 18.2051L37.6837 37.7908H30.8908V21.4809C31.0632 18.2051 30.5459 15.55 29.408 13.5156C28.2357 11.4812 26.7529 9.96395 24.8909 8.99846C23.0289 8.06746 21.0979 7.55023 19.098 7.55023C16.3394 7.48127 13.8223 8.44676 11.5465 10.4467C9.23618 12.4811 7.89138 15.5845 7.4776 19.8602V23.5498C7.51208 25.1015 7.51208 26.7911 7.51208 28.6531C7.51208 30.5496 7.4776 32.2737 7.4776 33.8254V37.7908H7.40864H0.615723V37.7563V37.6873L0.650204 18.5844C0.650204 18.412 0.650204 18.2741 0.650204 18.1017L0.684686 0.619385L7.51208 0.653867V4.68824C10.7189 2.06762 14.2705 0.72283 18.167 0.619385Z" fill="#17B35D"/>
<path d="M163.512 19.2393C163.512 15.8257 162.684 12.7223 161.029 9.92925C159.34 7.10176 157.133 4.86042 154.305 3.2053C151.6 1.60188 148.602 0.742847 145.314 0.690733L144.995 0.688127C141.582 0.688127 138.444 1.55019 135.651 3.2053L135.39 3.36227C132.718 5.00116 130.565 7.19011 128.961 9.92925C127.272 12.7223 126.444 15.8256 126.444 19.2393L126.446 19.5585C126.497 22.8468 127.324 25.8448 128.961 28.5839C130.616 31.3769 132.858 33.6183 135.651 35.2734C138.356 36.9102 141.386 37.738 144.676 37.7882L144.995 37.7906C148.409 37.7905 151.512 36.963 154.305 35.2734C157.044 33.67 159.201 31.5164 160.869 28.8441L161.029 28.5839C162.633 25.8448 163.459 22.8467 163.51 19.5585L163.512 19.2393ZM156.069 19.2393C156.069 16.1978 154.997 13.595 152.835 11.3991C150.639 9.23764 148.037 8.16589 144.995 8.16587C141.916 8.16587 139.314 9.23978 137.155 11.3991C134.959 13.5947 133.887 16.1969 133.887 19.2393L133.888 19.3833C133.921 22.3991 134.995 24.9514 137.152 27.0761L137.155 27.0795C139.318 29.2423 141.921 30.3473 144.995 30.3473V30.9632L144.844 30.9624C141.668 30.9263 138.96 29.7552 136.72 27.515C134.445 25.2747 133.307 22.5667 133.272 19.3909L133.271 19.2393C133.271 16.0826 134.374 13.3603 136.612 11.0724L136.72 10.9637C138.995 8.68793 141.754 7.55001 144.995 7.55001L145.145 7.55081C148.288 7.58582 150.997 8.72348 153.271 10.9637C155.547 13.274 156.685 16.0326 156.685 19.2393L156.684 19.3909C156.649 22.5667 155.511 25.2747 153.271 27.515L153.162 27.6208C150.874 29.8271 148.152 30.9631 144.995 30.9632V30.3473C148.034 30.3473 150.639 29.2432 152.839 27.0761C154.996 24.9174 156.069 22.317 156.069 19.2393ZM164.125 19.5683C164.073 22.9586 163.22 26.061 161.561 28.8951L161.558 28.8989L161.556 28.9027C159.817 31.7781 157.538 34.0948 154.616 35.8048L154.616 35.8046C151.723 37.5531 148.511 38.4064 144.995 38.4064C141.48 38.4064 138.232 37.5533 135.337 35.803V35.8032C132.455 34.0954 130.139 31.7798 128.431 28.8979V28.8977C126.683 25.9703 125.828 22.7576 125.828 19.2393C125.828 15.7228 126.682 12.5096 128.431 9.61531C130.139 6.69842 132.455 4.38295 135.337 2.67544C138.227 0.962691 141.474 0.0722656 144.995 0.0722656C148.518 0.0722783 151.73 0.963271 154.619 2.67544H154.619C157.448 4.33207 159.675 6.55817 161.393 9.34206L161.558 9.6133L161.559 9.61531C163.273 12.5084 164.128 15.7211 164.128 19.2393L164.125 19.5683Z" fill="#17B35D"/>
<path d="M114.034 0.210379H114.068V0.106934H122.093V0.279343H122.115L122.19 0.808197C122.205 0.913042 122.212 1.09992 122.217 1.3138C122.222 1.54653 122.226 1.86263 122.231 2.25924C122.235 2.65783 122.239 3.13791 122.245 3.70166L122.265 5.64648L122.265 19.453C122.263 22.5442 122.257 25.5786 122.231 28.555C122.196 32.5234 122.127 35.6696 122.023 37.9906L122.023 37.9972L122.022 38.0036C121.638 43.8368 120.131 48.3339 117.387 51.4395L117.385 51.4411L117.384 51.4425C114.646 54.5006 111.326 56.4664 107.437 57.3227C103.6 58.1676 99.7905 58.2391 95.9807 57.4983C92.1988 56.7974 88.9857 55.6016 86.391 53.9665L85.9565 53.6929L89.3155 45.3158L89.9618 45.8234C91.2756 46.8556 93.1415 47.703 95.6311 48.3716L95.8739 48.4358L96.1162 48.4971C98.6242 49.1186 101.228 49.3003 103.9 49.0396C106.6 48.7762 108.886 47.7601 110.748 46.0291C112.542 44.3605 113.517 41.6932 113.551 37.8888V37.883L113.551 37.8771V37.8737C113.551 37.8714 113.551 37.8679 113.552 37.8631C113.552 37.8536 113.552 37.8392 113.553 37.82C113.554 37.7815 113.555 37.7235 113.557 37.646C113.561 37.491 113.566 37.2579 113.573 36.9461C113.582 36.5081 113.592 35.9148 113.604 35.1647C112.256 36.058 110.762 36.8068 109.089 37.374C106.985 38.0872 104.607 38.4756 101.96 38.4756H101.953C98.872 38.4397 95.9367 37.5785 93.1913 35.9027C90.4523 34.2308 88.2466 32.024 86.508 29.222C84.8104 26.5196 83.9199 23.5148 83.8335 20.2521L83.8277 19.9356V19.9304L83.792 0.106934H91.7825L91.8166 0.686709L91.8168 0.68711V0.689516C91.8169 0.691029 91.8171 0.693098 91.8172 0.695731C91.8175 0.701056 91.8179 0.708689 91.8184 0.718585C91.8195 0.738407 91.821 0.767449 91.8226 0.805591C91.826 0.881875 91.8303 0.994854 91.8347 1.1444C91.8435 1.44352 91.8523 1.88918 91.8523 2.48137C91.8862 3.6481 91.8873 5.12198 91.9211 6.77896L91.9213 6.78538V11.9983L91.9197 12.6381C91.9126 14.1071 91.8823 15.4096 91.8521 16.498C91.7852 19.7671 92.3257 22.3786 93.4008 24.4328C94.4606 26.424 95.7819 27.8849 97.4151 28.8525L97.5741 28.9448L97.5785 28.9472L97.7379 29.0376C99.3873 29.9554 101.088 30.3789 102.88 30.3475H102.883C105.245 30.3147 107.504 29.6276 109.573 28.1825L109.578 28.1795L109.582 28.1763C111.617 26.8091 113.023 24.6351 113.759 21.5398C113.827 18.1875 113.862 14.9371 113.896 11.8191C113.93 8.64623 113.965 6.02437 113.999 3.95386C114.016 2.90388 114.025 2.12111 114.029 1.60128C114.031 1.34136 114.033 1.14709 114.033 1.0181C114.033 0.953665 114.033 0.905506 114.034 0.873553C114.034 0.857568 114.034 0.845544 114.034 0.837667V0.210379ZM114.645 1.60649C114.641 2.12803 114.632 2.91246 114.615 3.96409C114.581 6.03299 114.546 8.65361 114.512 11.8259C114.477 14.9638 114.443 18.2396 114.374 21.6188C113.615 24.86 112.132 27.2048 109.926 28.6875C107.753 30.2047 105.374 30.9289 102.891 30.9633C100.926 30.9978 99.0638 30.5151 97.2708 29.4806C95.4432 28.4462 93.995 26.86 92.8571 24.7221C91.7548 22.6177 91.2026 19.9954 91.2318 16.7927L91.2365 16.481C91.2666 15.3948 91.2967 14.0974 91.3038 12.6351L91.3054 11.9983V6.79159C91.2709 5.10199 91.2709 3.65375 91.2365 2.48137C91.2365 1.3105 91.2021 0.724307 91.202 0.722795H84.4091L84.4435 19.9292C84.478 23.2049 85.3401 26.2049 87.0297 28.8944C88.7193 31.6185 90.8572 33.7564 93.5123 35.377C96.0844 36.947 98.8183 37.7727 101.683 37.8541L101.96 37.8597C104.466 37.8597 106.712 37.5037 108.699 36.8545L108.891 36.7908C110.926 36.1011 112.684 35.1356 114.236 33.9633V34.1357C114.201 36.6513 114.167 37.8927 114.167 37.8942C114.132 41.7906 113.132 44.6526 111.167 46.4802L110.981 46.6494C109.05 48.3738 106.699 49.3852 103.96 49.6525L103.695 49.6769C101.049 49.9073 98.4635 49.7132 95.9683 49.095L95.7191 49.0318C93.064 48.3422 91.0296 47.4456 89.5813 46.3078L86.7193 53.4455C89.2365 55.0316 92.3744 56.204 96.0984 56.8937C99.7061 57.5951 103.314 57.5524 106.953 56.7966L107.305 56.7213C111.063 55.8937 114.27 53.9972 116.925 51.0318C119.546 48.0663 121.029 43.7216 121.408 37.9632C121.499 35.9417 121.563 33.2866 121.6 29.9979L121.615 28.5496C121.641 25.5755 121.647 22.5433 121.649 19.4528L121.649 5.65369C121.615 2.72277 121.615 1.1366 121.58 0.895204H121.477V0.722795H114.684V0.82624H114.65L114.645 1.60649Z" fill="#17B35D"/>
<path d="M79.5808 19.2393C79.5808 15.8256 78.7532 12.7223 77.0981 9.92925C75.4085 7.10175 73.2016 4.86042 70.3741 3.2053C67.6684 1.6019 64.6714 0.742871 61.3832 0.690733L61.064 0.688127C57.6504 0.688127 54.5125 1.55018 51.7195 3.2053L51.4593 3.36227C48.787 5.00116 46.6334 7.19011 45.03 9.92925C43.3404 12.7223 42.5128 15.8256 42.5128 19.2393L42.5152 19.5585C42.5654 22.8468 43.3932 25.8448 45.03 28.5839C46.6851 31.3769 48.9265 33.6183 51.7195 35.2734C54.4252 36.9102 57.4546 37.738 60.7449 37.7882L61.064 37.7906C64.371 37.7906 67.3868 37.014 70.1113 35.4294L70.3741 35.2734C73.1133 33.67 75.2699 31.5164 76.9381 28.8441L77.0981 28.5839C78.7015 25.8448 79.5283 22.8467 79.5784 19.5585L79.5808 19.2393ZM72.1375 19.2393C72.1375 16.1978 71.0657 13.595 68.9041 11.3991C66.7082 9.23765 64.1055 8.16587 61.064 8.16587C57.9848 8.16587 55.3832 9.23976 53.2238 11.3991C51.0283 13.5947 49.9561 16.1969 49.9561 19.2393L49.9569 19.3833C49.9894 22.3512 51.0298 24.8703 53.1186 26.9747L53.2206 27.0761L53.2222 27.0779L53.2238 27.0795C55.3866 29.2423 57.9895 30.3473 61.064 30.3473V30.9632L60.9125 30.9624C57.7367 30.9263 55.0287 29.7552 52.7884 27.515C50.5142 25.2747 49.376 22.5667 49.341 19.3909L49.3402 19.2393C49.3402 16.0826 50.4428 13.3603 52.681 11.0724L52.7884 10.9637C55.0642 8.68792 57.8228 7.55001 61.064 7.55001L61.214 7.55081C64.3569 7.58581 67.0655 8.72346 69.3397 10.9637C71.6155 13.274 72.7534 16.0325 72.7534 19.2393L72.7526 19.3909C72.7176 22.5667 71.5799 25.2747 69.3397 27.515L69.231 27.6208C66.9431 29.8271 64.2207 30.9632 61.064 30.9632V30.3473C64.1024 30.3473 66.7075 29.2432 68.9075 27.0761C71.0646 24.9174 72.1375 22.317 72.1375 19.2393ZM80.194 19.5683C80.1423 22.9586 79.2885 26.061 77.6296 28.8951L77.6273 28.8989L77.6249 28.9027C75.8855 31.7781 73.6065 34.0948 70.6853 35.8048L70.6851 35.8046C67.7915 37.5531 64.5794 38.4064 61.064 38.4064C57.5488 38.4064 54.3008 37.5533 51.4055 35.803V35.8032C48.5236 34.0954 46.208 31.7798 44.5001 28.8979V28.8977C42.7514 25.9703 41.897 22.7576 41.897 19.2393C41.897 15.7209 42.7514 12.506 44.503 9.6105C46.2108 6.69586 48.5257 4.38202 51.4055 2.67544C54.2958 0.962676 57.5425 0.0722656 61.064 0.0722656C64.5868 0.0722699 67.7988 0.963269 70.6881 2.67544H70.6879C73.517 4.33207 75.7441 6.55816 77.462 9.34206L77.6267 9.6133L77.6279 9.61531C79.3423 12.5083 80.1966 15.7211 80.1966 19.2393L80.194 19.5683Z" fill="#17B35D"/>
<path d="M0.684825 0.619069L0.650343 18.1013V18.5841L0.615861 37.687V37.7905H7.47774V33.8251C7.47774 32.2734 7.51222 30.5493 7.51222 28.6528C7.51222 26.7908 7.51222 25.1012 7.47774 23.5495V19.8599C7.89152 15.5842 9.23631 12.4808 11.5466 10.4464C13.8224 8.44644 16.3396 7.48095 19.0981 7.54991C21.0981 7.54991 23.029 8.06714 24.8911 8.99815C26.7531 9.96364 28.2358 11.4808 29.4082 13.5153C30.5461 15.5497 31.0633 18.2048 30.8909 21.4806V37.7905H37.6838L37.7183 18.2048C37.7183 16.5152 37.339 14.6532 36.5459 12.6532C35.7873 10.6188 34.5804 8.72229 32.9943 6.89476C31.4081 5.06722 29.3737 3.5845 26.9255 2.41212C24.4428 1.27422 21.5463 0.653551 18.1671 0.619069C14.2707 0.722514 10.719 2.0673 7.51222 4.68792V0.653551L0.684825 0.619069ZM8.12809 3.43816C11.171 1.2417 14.5156 0.0999313 18.1507 0.00340809L18.1621 0.00320761H18.1733C21.5174 0.0373309 24.4223 0.633973 26.9397 1.74334L27.1821 1.85219L27.1867 1.8544L27.1915 1.85661C29.7026 3.05911 31.8091 4.58964 33.4594 6.491C35.0791 8.35719 36.3283 10.3124 37.1185 12.4263C37.9345 14.4842 38.3342 16.4235 38.3342 18.2048V18.2058L38.2987 38.4063H30.275V21.4643L30.2758 21.4483C30.444 18.2535 29.9366 15.7256 28.8745 13.8228C27.7511 11.8734 26.3503 10.4503 24.614 9.54825C22.8244 8.65373 20.9878 8.16577 19.0981 8.16577H19.0905L19.0827 8.16557C16.4948 8.10089 14.1249 9.00055 11.9532 10.9091C9.8043 12.8016 8.50122 15.7256 8.0936 19.8922V23.5495C8.12796 25.1056 8.12809 26.7979 8.12809 28.6528C8.12809 29.6045 8.11946 30.5125 8.11084 31.3744C8.10221 32.2375 8.0936 33.053 8.0936 33.8251V38.4063H0V37.6858L0.0344818 18.5829V18.1001L0.0701665 0L8.12809 0.0406966V3.43816Z" fill="#17B35D"/>
</svg>
