<svg width="48" height="48" viewBox="0 0 48 48" fill="none" xmlns="http://www.w3.org/2000/svg">
<rect width="48" height="48" rx="24" fill="url(#paint0_linear_208_9913)"/>
<path d="M43.3608 24C43.3608 29.1252 39.206 33.28 34.0808 33.28C28.9556 33.28 24.8008 29.1252 24.8008 24C24.8008 18.8748 28.9556 14.72 34.0808 14.72C39.206 14.72 43.3608 18.8748 43.3608 24ZM28.7569 24C28.7569 26.9403 31.1405 29.3239 34.0808 29.3239C37.0211 29.3239 39.4047 26.9403 39.4047 24C39.4047 21.0597 37.0211 18.6761 34.0808 18.6761C31.1405 18.6761 28.7569 21.0597 28.7569 24Z" fill="white"/>
<path d="M14.2409 33.28C19.366 33.28 23.5208 29.1109 23.5208 23.968C23.5208 23.968 23.5487 20.5902 22.793 17.76H18.8369C19.5926 20.5902 19.5647 23.968 19.5647 23.968C19.5647 26.9185 17.1812 29.3103 14.2409 29.3103C11.3006 29.3103 8.91701 26.9185 8.91701 23.968C8.91701 23.968 8.91701 20.5902 9.64484 17.76H5.68878C4.96094 20.5902 4.96094 23.968 4.96094 23.968C4.96094 29.1109 9.1157 33.28 14.2409 33.28Z" fill="white"/>
<circle cx="34.0012" cy="23.9199" r="2.8" fill="white"/>
<defs>
<linearGradient id="paint0_linear_208_9913" x1="24" y1="0" x2="24" y2="48" gradientUnits="userSpaceOnUse">
<stop stop-color="#13B15A"/>
<stop offset="1" stop-color="#4AD287"/>
</linearGradient>
</defs>
</svg>
