<svg width="30" height="28" viewBox="0 0 30 28" fill="none" xmlns="http://www.w3.org/2000/svg">
<g clip-path="url(#clip0_207_3513)">
<path d="M28.2231 21.7822L17.3404 2.73923C17.1032 2.32056 16.7591 1.97232 16.3432 1.73004C15.9274 1.48776 15.4548 1.36011 14.9735 1.36011C14.4922 1.36011 14.0196 1.48776 13.6038 1.73004C13.1879 1.97232 12.8439 2.32056 12.6066 2.73923L1.72394 21.7822C1.48408 22.1976 1.35832 22.669 1.35938 23.1486C1.36044 23.6283 1.4883 24.0991 1.72999 24.5134C1.97167 24.9277 2.3186 25.2707 2.7356 25.5077C3.15261 25.7447 3.62486 25.8672 4.10451 25.8629H25.8697C26.347 25.8624 26.8159 25.7364 27.2291 25.4974C27.6422 25.2584 27.9853 24.915 28.2238 24.5015C28.4622 24.0881 28.5877 23.6191 28.5876 23.1418C28.5875 22.6645 28.4617 22.1956 28.2231 21.7822Z" fill="#FB2C36" stroke="#FB2C36" stroke-width="2.72054" stroke-linecap="round" stroke-linejoin="round"/>
</g>
<defs>
<clipPath id="clip0_207_3513">
<rect width="29.9489" height="27.2234" fill="white"/>
</clipPath>
</defs>
</svg>
